0
SECTION
2
ENTITIES
0
LWPOLYLINE
8
SECTIONS
90
122
70
1
10
0.00000
20
0.00000
10
0.00000
20
0.15000
10
0.00000
20
0.30000
10
0.00000
20
0.45000
10
0.00000
20
0.60000
10
0.00000
20
0.75000
10
0.00000
20
0.90000
10
0.00000
20
1.05000
10
0.00000
20
1.20000
10
0.00000
20
1.35000
10
0.00000
20
1.50000
10
0.00000
20
1.65000
10
0.00000
20
1.80000
10
0.00000
20
1.95000
10
0.00000
20
2.10000
10
0.00000
20
2.25000
10
0.00000
20
2.40000
10
0.00000
20
2.55000
10
0.00000
20
2.70000
10
0.00000
20
2.85000
10
0.00000
20
3.00000
10
0.00000
20
3.15000
10
0.00000
20
3.30000
10
0.00000
20
3.45000
10
0.00000
20
3.60000
10
0.00000
20
3.75000
10
0.00000
20
3.90000
10
0.00000
20
4.05000
10
0.00000
20
4.20000
10
0.00000
20
4.35000
10
0.00000
20
4.50000
10
0.00000
20
4.65000
10
0.00000
20
4.80000
10
0.00000
20
4.95000
10
0.00000
20
5.10000
10
0.00000
20
5.25000
10
0.00000
20
5.40000
10
0.00000
20
5.55000
10
0.00000
20
5.70000
10
0.00000
20
5.85000
10
0.00000
20
6.00000
10
0.00000
20
6.15000
10
0.00000
20
6.30000
10
0.00000
20
6.45000
10
0.00000
20
6.60000
10
0.00000
20
6.75000
10
0.00000
20
6.90000
10
0.00000
20
7.05000
10
0.00000
20
7.20000
10
0.00000
20
7.35000
10
0.00000
20
7.50000
10
0.00000
20
7.65000
10
0.00000
20
7.80000
10
0.00000
20
7.95000
10
0.00000
20
8.10000
10
0.00000
20
8.25000
10
0.00000
20
8.40000
10
0.00000
20
8.55000
10
0.00000
20
8.70000
10
0.00000
20
8.85000
10
0.00000
20
9.00000
10
-0.00000
20
9.00000
10
-0.00000
20
8.85000
10
-0.00000
20
8.70000
10
-0.00000
20
8.55000
10
-0.00000
20
8.40000
10
-0.00000
20
8.25000
10
-0.00000
20
8.10000
10
-0.00000
20
7.95000
10
-0.00000
20
7.80000
10
-0.00000
20
7.65000
10
-0.00000
20
7.50000
10
-0.00000
20
7.35000
10
-0.00000
20
7.20000
10
-0.00000
20
7.05000
10
-0.00000
20
6.90000
10
-0.00000
20
6.75000
10
-0.00000
20
6.60000
10
-0.00000
20
6.45000
10
-0.00000
20
6.30000
10
-0.00000
20
6.15000
10
-0.00000
20
6.00000
10
-0.00000
20
5.85000
10
-0.00000
20
5.70000
10
-0.00000
20
5.55000
10
-0.00000
20
5.40000
10
-0.00000
20
5.25000
10
-0.00000
20
5.10000
10
-0.00000
20
4.95000
10
-0.00000
20
4.80000
10
-0.00000
20
4.65000
10
-0.00000
20
4.50000
10
-0.00000
20
4.35000
10
-0.00000
20
4.20000
10
-0.00000
20
4.05000
10
-0.00000
20
3.90000
10
-0.00000
20
3.75000
10
-0.00000
20
3.60000
10
-0.00000
20
3.45000
10
-0.00000
20
3.30000
10
-0.00000
20
3.15000
10
-0.00000
20
3.00000
10
-0.00000
20
2.85000
10
-0.00000
20
2.70000
10
-0.00000
20
2.55000
10
-0.00000
20
2.40000
10
-0.00000
20
2.25000
10
-0.00000
20
2.10000
10
-0.00000
20
1.95000
10
-0.00000
20
1.80000
10
-0.00000
20
1.65000
10
-0.00000
20
1.50000
10
-0.00000
20
1.35000
10
-0.00000
20
1.20000
10
-0.00000
20
1.05000
10
-0.00000
20
0.90000
10
-0.00000
20
0.75000
10
-0.00000
20
0.60000
10
-0.00000
20
0.45000
10
-0.00000
20
0.30000
10
-0.00000
20
0.15000
10
-0.00000
20
0.00000
0
LWPOLYLINE
8
SECTIONS
90
122
70
1
10
0.00000
20
0.00000
10
0.16520
20
0.15000
10
0.32480
20
0.30000
10
0.47880
20
0.45000
10
0.62720
20
0.60000
10
0.77000
20
0.75000
10
0.90720
20
0.90000
10
1.03880
20
1.05000
10
1.16480
20
1.20000
10
1.28520
20
1.35000
10
1.40000
20
1.50000
10
1.50920
20
1.65000
10
1.61280
20
1.80000
10
1.71080
20
1.95000
10
1.80320
20
2.10000
10
1.89000
20
2.25000
10
1.97120
20
2.40000
10
2.04680
20
2.55000
10
2.11680
20
2.70000
10
2.18120
20
2.85000
10
2.24000
20
3.00000
10
2.29320
20
3.15000
10
2.34080
20
3.30000
10
2.38280
20
3.45000
10
2.41920
20
3.60000
10
2.45000
20
3.75000
10
2.47520
20
3.90000
10
2.49480
20
4.05000
10
2.50880
20
4.20000
10
2.51720
20
4.35000
10
2.52000
20
4.50000
10
2.52000
20
4.65000
10
2.52000
20
4.80000
10
2.52000
20
4.95000
10
2.52000
20
5.10000
10
2.52000
20
5.25000
10
2.52000
20
5.40000
10
2.52000
20
5.55000
10
2.52000
20
5.70000
10
2.52000
20
5.85000
10
2.52000
20
6.00000
10
2.52000
20
6.15000
10
2.52000
20
6.30000
10
2.52000
20
6.45000
10
2.52000
20
6.60000
10
2.52000
20
6.75000
10
2.52000
20
6.90000
10
2.52000
20
7.05000
10
2.52000
20
7.20000
10
2.52000
20
7.35000
10
2.52000
20
7.50000
10
2.52000
20
7.65000
10
2.52000
20
7.80000
10
2.52000
20
7.95000
10
2.52000
20
8.10000
10
2.52000
20
8.25000
10
2.52000
20
8.40000
10
2.52000
20
8.55000
10
2.52000
20
8.70000
10
2.52000
20
8.85000
10
2.52000
20
9.00000
10
-2.52000
20
9.00000
10
-2.52000
20
8.85000
10
-2.52000
20
8.70000
10
-2.52000
20
8.55000
10
-2.52000
20
8.40000
10
-2.52000
20
8.25000
10
-2.52000
20
8.10000
10
-2.52000
20
7.95000
10
-2.52000
20
7.80000
10
-2.52000
20
7.65000
10
-2.52000
20
7.50000
10
-2.52000
20
7.35000
10
-2.52000
20
7.20000
10
-2.52000
20
7.05000
10
-2.52000
20
6.90000
10
-2.52000
20
6.75000
10
-2.52000
20
6.60000
10
-2.52000
20
6.45000
10
-2.52000
20
6.30000
10
-2.52000
20
6.15000
10
-2.52000
20
6.00000
10
-2.52000
20
5.85000
10
-2.52000
20
5.70000
10
-2.52000
20
5.55000
10
-2.52000
20
5.40000
10
-2.52000
20
5.25000
10
-2.52000
20
5.10000
10
-2.52000
20
4.95000
10
-2.52000
20
4.80000
10
-2.52000
20
4.65000
10
-2.52000
20
4.50000
10
-2.51720
20
4.35000
10
-2.50880
20
4.20000
10
-2.49480
20
4.05000
10
-2.47520
20
3.90000
10
-2.45000
20
3.75000
10
-2.41920
20
3.60000
10
-2.38280
20
3.45000
10
-2.34080
20
3.30000
10
-2.29320
20
3.15000
10
-2.24000
20
3.00000
10
-2.18120
20
2.85000
10
-2.11680
20
2.70000
10
-2.04680
20
2.55000
10
-1.97120
20
2.40000
10
-1.89000
20
2.25000
10
-1.80320
20
2.10000
10
-1.71080
20
1.95000
10
-1.61280
20
1.80000
10
-1.50920
20
1.65000
10
-1.40000
20
1.50000
10
-1.28520
20
1.35000
10
-1.16480
20
1.20000
10
-1.03880
20
1.05000
10
-0.90720
20
0.90000
10
-0.77000
20
0.75000
10
-0.62720
20
0.60000
10
-0.47880
20
0.45000
10
-0.32480
20
0.30000
10
-0.16520
20
0.15000
10
-0.00000
20
0.00000
0
LWPOLYLINE
8
SECTIONS
90
122
70
1
10
0.00000
20
0.00000
10
0.29369
20
0.15000
10
0.57742
20
0.30000
10
0.85120
20
0.45000
10
1.11502
20
0.60000
10
1.36889
20
0.75000
10
1.61280
20
0.90000
10
1.84676
20
1.05000
10
2.07076
20
1.20000
10
2.28480
20
1.35000
10
2.48889
20
1.50000
10
2.68302
20
1.65000
10
2.86720
20
1.80000
10
3.04142
20
1.95000
10
3.20569
20
2.10000
10
3.36000
20
2.25000
10
3.50436
20
2.40000
10
3.63876
20
2.55000
10
3.76320
20
2.70000
10
3.87769
20
2.85000
10
3.98222
20
3.00000
10
4.07680
20
3.15000
10
4.16142
20
3.30000
10
4.23609
20
3.45000
10
4.30080
20
3.60000
10
4.35556
20
3.75000
10
4.40036
20
3.90000
10
4.43520
20
4.05000
10
4.46009
20
4.20000
10
4.47502
20
4.35000
10
4.48000
20
4.50000
10
4.48000
20
4.65000
10
4.48000
20
4.80000
10
4.48000
20
4.95000
10
4.48000
20
5.10000
10
4.48000
20
5.25000
10
4.48000
20
5.40000
10
4.48000
20
5.55000
10
4.48000
20
5.70000
10
4.48000
20
5.85000
10
4.48000
20
6.00000
10
4.48000
20
6.15000
10
4.48000
20
6.30000
10
4.48000
20
6.45000
10
4.48000
20
6.60000
10
4.48000
20
6.75000
10
4.48000
20
6.90000
10
4.48000
20
7.05000
10
4.48000
20
7.20000
10
4.48000
20
7.35000
10
4.48000
20
7.50000
10
4.48000
20
7.65000
10
4.48000
20
7.80000
10
4.48000
20
7.95000
10
4.48000
20
8.10000
10
4.48000
20
8.25000
10
4.48000
20
8.40000
10
4.48000
20
8.55000
10
4.48000
20
8.70000
10
4.48000
20
8.85000
10
4.48000
20
9.00000
10
-4.48000
20
9.00000
10
-4.48000
20
8.85000
10
-4.48000
20
8.70000
10
-4.48000
20
8.55000
10
-4.48000
20
8.40000
10
-4.48000
20
8.25000
10
-4.48000
20
8.10000
10
-4.48000
20
7.95000
10
-4.48000
20
7.80000
10
-4.48000
20
7.65000
10
-4.48000
20
7.50000
10
-4.48000
20
7.35000
10
-4.48000
20
7.20000
10
-4.48000
20
7.05000
10
-4.48000
20
6.90000
10
-4.48000
20
6.75000
10
-4.48000
20
6.60000
10
-4.48000
20
6.45000
10
-4.48000
20
6.30000
10
-4.48000
20
6.15000
10
-4.48000
20
6.00000
10
-4.48000
20
5.85000
10
-4.48000
20
5.70000
10
-4.48000
20
5.55000
10
-4.48000
20
5.40000
10
-4.48000
20
5.25000
10
-4.48000
20
5.10000
10
-4.48000
20
4.95000
10
-4.48000
20
4.80000
10
-4.48000
20
4.65000
10
-4.48000
20
4.50000
10
-4.47502
20
4.35000
10
-4.46009
20
4.20000
10
-4.43520
20
4.05000
10
-4.40036
20
3.90000
10
-4.35556
20
3.75000
10
-4.30080
20
3.60000
10
-4.23609
20
3.45000
10
-4.16142
20
3.30000
10
-4.07680
20
3.15000
10
-3.98222
20
3.00000
10
-3.87769
20
2.85000
10
-3.76320
20
2.70000
10
-3.63876
20
2.55000
10
-3.50436
20
2.40000
10
-3.36000
20
2.25000
10
-3.20569
20
2.10000
10
-3.04142
20
1.95000
10
-2.86720
20
1.80000
10
-2.68302
20
1.65000
10
-2.48889
20
1.50000
10
-2.28480
20
1.35000
10
-2.07076
20
1.20000
10
-1.84676
20
1.05000
10
-1.61280
20
0.90000
10
-1.36889
20
0.75000
10
-1.11502
20
0.60000
10
-0.85120
20
0.45000
10
-0.57742
20
0.30000
10
-0.29369
20
0.15000
10
-0.00000
20
0.00000
0
LWPOLYLINE
8
SECTIONS
90
122
70
1
10
0.00000
20
0.00000
10
0.38547
20
0.15000
10
0.75787
20
0.30000
10
1.11720
20
0.45000
10
1.46347
20
0.60000
10
1.79667
20
0.75000
10
2.11680
20
0.90000
10
2.42387
20
1.05000
10
2.71787
20
1.20000
10
2.99880
20
1.35000
10
3.26667
20
1.50000
10
3.52147
20
1.65000
10
3.76320
20
1.80000
10
3.99187
20
1.95000
10
4.20747
20
2.10000
10
4.41000
20
2.25000
10
4.59947
20
2.40000
10
4.77587
20
2.55000
10
4.93920
20
2.70000
10
5.08947
20
2.85000
10
5.22667
20
3.00000
10
5.35080
20
3.15000
10
5.46187
20
3.30000
10
5.55987
20
3.45000
10
5.64480
20
3.60000
10
5.71667
20
3.75000
10
5.77547
20
3.90000
10
5.82120
20
4.05000
10
5.85387
20
4.20000
10
5.87347
20
4.35000
10
5.88000
20
4.50000
10
5.88000
20
4.65000
10
5.88000
20
4.80000
10
5.88000
20
4.95000
10
5.88000
20
5.10000
10
5.88000
20
5.25000
10
5.88000
20
5.40000
10
5.88000
20
5.55000
10
5.88000
20
5.70000
10
5.88000
20
5.85000
10
5.88000
20
6.00000
10
5.88000
20
6.15000
10
5.88000
20
6.30000
10
5.88000
20
6.45000
10
5.88000
20
6.60000
10
5.88000
20
6.75000
10
5.88000
20
6.90000
10
5.88000
20
7.05000
10
5.88000
20
7.20000
10
5.88000
20
7.35000
10
5.88000
20
7.50000
10
5.88000
20
7.65000
10
5.88000
20
7.80000
10
5.88000
20
7.95000
10
5.88000
20
8.10000
10
5.88000
20
8.25000
10
5.88000
20
8.40000
10
5.88000
20
8.55000
10
5.88000
20
8.70000
10
5.88000
20
8.85000
10
5.88000
20
9.00000
10
-5.88000
20
9.00000
10
-5.88000
20
8.85000
10
-5.88000
20
8.70000
10
-5.88000
20
8.55000
10
-5.88000
20
8.40000
10
-5.88000
20
8.25000
10
-5.88000
20
8.10000
10
-5.88000
20
7.95000
10
-5.88000
20
7.80000
10
-5.88000
20
7.65000
10
-5.88000
20
7.50000
10
-5.88000
20
7.35000
10
-5.88000
20
7.20000
10
-5.88000
20
7.05000
10
-5.88000
20
6.90000
10
-5.88000
20
6.75000
10
-5.88000
20
6.60000
10
-5.88000
20
6.45000
10
-5.88000
20
6.30000
10
-5.88000
20
6.15000
10
-5.88000
20
6.00000
10
-5.88000
20
5.85000
10
-5.88000
20
5.70000
10
-5.88000
20
5.55000
10
-5.88000
20
5.40000
10
-5.88000
20
5.25000
10
-5.88000
20
5.10000
10
-5.88000
20
4.95000
10
-5.88000
20
4.80000
10
-5.88000
20
4.65000
10
-5.88000
20
4.50000
10
-5.87347
20
4.35000
10
-5.85387
20
4.20000
10
-5.82120
20
4.05000
10
-5.77547
20
3.90000
10
-5.71667
20
3.75000
10
-5.64480
20
3.60000
10
-5.55987
20
3.45000
10
-5.46187
20
3.30000
10
-5.35080
20
3.15000
10
-5.22667
20
3.00000
10
-5.08947
20
2.85000
10
-4.93920
20
2.70000
10
-4.77587
20
2.55000
10
-4.59947
20
2.40000
10
-4.41000
20
2.25000
10
-4.20747
20
2.10000
10
-3.99187
20
1.95000
10
-3.76320
20
1.80000
10
-3.52147
20
1.65000
10
-3.26667
20
1.50000
10
-2.99880
20
1.35000
10
-2.71787
20
1.20000
10
-2.42387
20
1.05000
10
-2.11680
20
0.90000
10
-1.79667
20
0.75000
10
-1.46347
20
0.60000
10
-1.11720
20
0.45000
10
-0.75787
20
0.30000
10
-0.38547
20
0.15000
10
-0.00000
20
0.00000
0
LWPOLYLINE
8
SECTIONS
90
122
70
1
10
0.00000
20
0.00000
10
0.44053
20
0.15000
10
0.86613
20
0.30000
10
1.27680
20
0.45000
10
1.67253
20
0.60000
10
2.05333
20
0.75000
10
2.41920
20
0.90000
10
2.77013
20
1.05000
10
3.10613
20
1.20000
10
3.42720
20
1.35000
10
3.73333
20
1.50000
10
4.02453
20
1.65000
10
4.30080
20
1.80000
10
4.56213
20
1.95000
10
4.80853
20
2.10000
10
5.04000
20
2.25000
10
5.25653
20
2.40000
10
5.45813
20
2.55000
10
5.64480
20
2.70000
10
5.81653
20
2.85000
10
5.97333
20
3.00000
10
6.11520
20
3.15000
10
6.24213
20
3.30000
10
6.35413
20
3.45000
10
6.45120
20
3.60000
10
6.53333
20
3.75000
10
6.60053
20
3.90000
10
6.65280
20
4.05000
10
6.69013
20
4.20000
10
6.71253
20
4.35000
10
6.72000
20
4.50000
10
6.72000
20
4.65000
10
6.72000
20
4.80000
10
6.72000
20
4.95000
10
6.72000
20
5.10000
10
6.72000
20
5.25000
10
6.72000
20
5.40000
10
6.72000
20
5.55000
10
6.72000
20
5.70000
10
6.72000
20
5.85000
10
6.72000
20
6.00000
10
6.72000
20
6.15000
10
6.72000
20
6.30000
10
6.72000
20
6.45000
10
6.72000
20
6.60000
10
6.72000
20
6.75000
10
6.72000
20
6.90000
10
6.72000
20
7.05000
10
6.72000
20
7.20000
10
6.72000
20
7.35000
10
6.72000
20
7.50000
10
6.72000
20
7.65000
10
6.72000
20
7.80000
10
6.72000
20
7.95000
10
6.72000
20
8.10000
10
6.72000
20
8.25000
10
6.72000
20
8.40000
10
6.72000
20
8.55000
10
6.72000
20
8.70000
10
6.72000
20
8.85000
10
6.72000
20
9.00000
10
-6.72000
20
9.00000
10
-6.72000
20
8.85000
10
-6.72000
20
8.70000
10
-6.72000
20
8.55000
10
-6.72000
20
8.40000
10
-6.72000
20
8.25000
10
-6.72000
20
8.10000
10
-6.72000
20
7.95000
10
-6.72000
20
7.80000
10
-6.72000
20
7.65000
10
-6.72000
20
7.50000
10
-6.72000
20
7.35000
10
-6.72000
20
7.20000
10
-6.72000
20
7.05000
10
-6.72000
20
6.90000
10
-6.72000
20
6.75000
10
-6.72000
20
6.60000
10
-6.72000
20
6.45000
10
-6.72000
20
6.30000
10
-6.72000
20
6.15000
10
-6.72000
20
6.00000
10
-6.72000
20
5.85000
10
-6.72000
20
5.70000
10
-6.72000
20
5.55000
10
-6.72000
20
5.40000
10
-6.72000
20
5.25000
10
-6.72000
20
5.10000
10
-6.72000
20
4.95000
10
-6.72000
20
4.80000
10
-6.72000
20
4.65000
10
-6.72000
20
4.50000
10
-6.71253
20
4.35000
10
-6.69013
20
4.20000
10
-6.65280
20
4.05000
10
-6.60053
20
3.90000
10
-6.53333
20
3.75000
10
-6.45120
20
3.60000
10
-6.35413
20
3.45000
10
-6.24213
20
3.30000
10
-6.11520
20
3.15000
10
-5.97333
20
3.00000
10
-5.81653
20
2.85000
10
-5.64480
20
2.70000
10
-5.45813
20
2.55000
10
-5.25653
20
2.40000
10
-5.04000
20
2.25000
10
-4.80853
20
2.10000
10
-4.56213
20
1.95000
10
-4.30080
20
1.80000
10
-4.02453
20
1.65000
10
-3.73333
20
1.50000
10
-3.42720
20
1.35000
10
-3.10613
20
1.20000
10
-2.77013
20
1.05000
10
-2.41920
20
0.90000
10
-2.05333
20
0.75000
10
-1.67253
20
0.60000
10
-1.27680
20
0.45000
10
-0.86613
20
0.30000
10
-0.44053
20
0.15000
10
-0.00000
20
0.00000
0
LWPOLYLINE
8
SECTIONS
90
122
70
1
10
0.00000
20
0.00000
10
0.45889
20
0.15000
10
0.90222
20
0.30000
10
1.33000
20
0.45000
10
1.74222
20
0.60000
10
2.13889
20
0.75000
10
2.52000
20
0.90000
10
2.88556
20
1.05000
10
3.23556
20
1.20000
10
3.57000
20
1.35000
10
3.88889
20
1.50000
10
4.19222
20
1.65000
10
4.48000
20
1.80000
10
4.75222
20
1.95000
10
5.00889
20
2.10000
10
5.25000
20
2.25000
10
5.47556
20
2.40000
10
5.68556
20
2.55000
10
5.88000
20
2.70000
10
6.05889
20
2.85000
10
6.22222
20
3.00000
10
6.37000
20
3.15000
10
6.50222
20
3.30000
10
6.61889
20
3.45000
10
6.72000
20
3.60000
10
6.80556
20
3.75000
10
6.87556
20
3.90000
10
6.93000
20
4.05000
10
6.96889
20
4.20000
10
6.99222
20
4.35000
10
7.00000
20
4.50000
10
7.00000
20
4.65000
10
7.00000
20
4.80000
10
7.00000
20
4.95000
10
7.00000
20
5.10000
10
7.00000
20
5.25000
10
7.00000
20
5.40000
10
7.00000
20
5.55000
10
7.00000
20
5.70000
10
7.00000
20
5.85000
10
7.00000
20
6.00000
10
7.00000
20
6.15000
10
7.00000
20
6.30000
10
7.00000
20
6.45000
10
7.00000
20
6.60000
10
7.00000
20
6.75000
10
7.00000
20
6.90000
10
7.00000
20
7.05000
10
7.00000
20
7.20000
10
7.00000
20
7.35000
10
7.00000
20
7.50000
10
7.00000
20
7.65000
10
7.00000
20
7.80000
10
7.00000
20
7.95000
10
7.00000
20
8.10000
10
7.00000
20
8.25000
10
7.00000
20
8.40000
10
7.00000
20
8.55000
10
7.00000
20
8.70000
10
7.00000
20
8.85000
10
7.00000
20
9.00000
10
-7.00000
20
9.00000
10
-7.00000
20
8.85000
10
-7.00000
20
8.70000
10
-7.00000
20
8.55000
10
-7.00000
20
8.40000
10
-7.00000
20
8.25000
10
-7.00000
20
8.10000
10
-7.00000
20
7.95000
10
-7.00000
20
7.80000
10
-7.00000
20
7.65000
10
-7.00000
20
7.50000
10
-7.00000
20
7.35000
10
-7.00000
20
7.20000
10
-7.00000
20
7.05000
10
-7.00000
20
6.90000
10
-7.00000
20
6.75000
10
-7.00000
20
6.60000
10
-7.00000
20
6.45000
10
-7.00000
20
6.30000
10
-7.00000
20
6.15000
10
-7.00000
20
6.00000
10
-7.00000
20
5.85000
10
-7.00000
20
5.70000
10
-7.00000
20
5.55000
10
-7.00000
20
5.40000
10
-7.00000
20
5.25000
10
-7.00000
20
5.10000
10
-7.00000
20
4.95000
10
-7.00000
20
4.80000
10
-7.00000
20
4.65000
10
-7.00000
20
4.50000
10
-6.99222
20
4.35000
10
-6.96889
20
4.20000
10
-6.93000
20
4.05000
10
-6.87556
20
3.90000
10
-6.80556
20
3.75000
10
-6.72000
20
3.60000
10
-6.61889
20
3.45000
10
-6.50222
20
3.30000
10
-6.37000
20
3.15000
10
-6.22222
20
3.00000
10
-6.05889
20
2.85000
10
-5.88000
20
2.70000
10
-5.68556
20
2.55000
10
-5.47556
20
2.40000
10
-5.25000
20
2.25000
10
-5.00889
20
2.10000
10
-4.75222
20
1.95000
10
-4.48000
20
1.80000
10
-4.19222
20
1.65000
10
-3.88889
20
1.50000
10
-3.57000
20
1.35000
10
-3.23556
20
1.20000
10
-2.88556
20
1.05000
10
-2.52000
20
0.90000
10
-2.13889
20
0.75000
10
-1.74222
20
0.60000
10
-1.33000
20
0.45000
10
-0.90222
20
0.30000
10
-0.45889
20
0.15000
10
-0.00000
20
0.00000
0
LWPOLYLINE
8
SECTIONS
90
122
70
1
10
0.00000
20
0.00000
10
0.44053
20
0.15000
10
0.86613
20
0.30000
10
1.27680
20
0.45000
10
1.67253
20
0.60000
10
2.05333
20
0.75000
10
2.41920
20
0.90000
10
2.77013
20
1.05000
10
3.10613
20
1.20000
10
3.42720
20
1.35000
10
3.73333
20
1.50000
10
4.02453
20
1.65000
10
4.30080
20
1.80000
10
4.56213
20
1.95000
10
4.80853
20
2.10000
10
5.04000
20
2.25000
10
5.25653
20
2.40000
10
5.45813
20
2.55000
10
5.64480
20
2.70000
10
5.81653
20
2.85000
10
5.97333
20
3.00000
10
6.11520
20
3.15000
10
6.24213
20
3.30000
10
6.35413
20
3.45000
10
6.45120
20
3.60000
10
6.53333
20
3.75000
10
6.60053
20
3.90000
10
6.65280
20
4.05000
10
6.69013
20
4.20000
10
6.71253
20
4.35000
10
6.72000
20
4.50000
10
6.72000
20
4.65000
10
6.72000
20
4.80000
10
6.72000
20
4.95000
10
6.72000
20
5.10000
10
6.72000
20
5.25000
10
6.72000
20
5.40000
10
6.72000
20
5.55000
10
6.72000
20
5.70000
10
6.72000
20
5.85000
10
6.72000
20
6.00000
10
6.72000
20
6.15000
10
6.72000
20
6.30000
10
6.72000
20
6.45000
10
6.72000
20
6.60000
10
6.72000
20
6.75000
10
6.72000
20
6.90000
10
6.72000
20
7.05000
10
6.72000
20
7.20000
10
6.72000
20
7.35000
10
6.72000
20
7.50000
10
6.72000
20
7.65000
10
6.72000
20
7.80000
10
6.72000
20
7.95000
10
6.72000
20
8.10000
10
6.72000
20
8.25000
10
6.72000
20
8.40000
10
6.72000
20
8.55000
10
6.72000
20
8.70000
10
6.72000
20
8.85000
10
6.72000
20
9.00000
10
-6.72000
20
9.00000
10
-6.72000
20
8.85000
10
-6.72000
20
8.70000
10
-6.72000
20
8.55000
10
-6.72000
20
8.40000
10
-6.72000
20
8.25000
10
-6.72000
20
8.10000
10
-6.72000
20
7.95000
10
-6.72000
20
7.80000
10
-6.72000
20
7.65000
10
-6.72000
20
7.50000
10
-6.72000
20
7.35000
10
-6.72000
20
7.20000
10
-6.72000
20
7.05000
10
-6.72000
20
6.90000
10
-6.72000
20
6.75000
10
-6.72000
20
6.60000
10
-6.72000
20
6.45000
10
-6.72000
20
6.30000
10
-6.72000
20
6.15000
10
-6.72000
20
6.00000
10
-6.72000
20
5.85000
10
-6.72000
20
5.70000
10
-6.72000
20
5.55000
10
-6.72000
20
5.40000
10
-6.72000
20
5.25000
10
-6.72000
20
5.10000
10
-6.72000
20
4.95000
10
-6.72000
20
4.80000
10
-6.72000
20
4.65000
10
-6.72000
20
4.50000
10
-6.71253
20
4.35000
10
-6.69013
20
4.20000
10
-6.65280
20
4.05000
10
-6.60053
20
3.90000
10
-6.53333
20
3.75000
10
-6.45120
20
3.60000
10
-6.35413
20
3.45000
10
-6.24213
20
3.30000
10
-6.11520
20
3.15000
10
-5.97333
20
3.00000
10
-5.81653
20
2.85000
10
-5.64480
20
2.70000
10
-5.45813
20
2.55000
10
-5.25653
20
2.40000
10
-5.04000
20
2.25000
10
-4.80853
20
2.10000
10
-4.56213
20
1.95000
10
-4.30080
20
1.80000
10
-4.02453
20
1.65000
10
-3.73333
20
1.50000
10
-3.42720
20
1.35000
10
-3.10613
20
1.20000
10
-2.77013
20
1.05000
10
-2.41920
20
0.90000
10
-2.05333
20
0.75000
10
-1.67253
20
0.60000
10
-1.27680
20
0.45000
10
-0.86613
20
0.30000
10
-0.44053
20
0.15000
10
-0.00000
20
0.00000
0
LWPOLYLINE
8
SECTIONS
90
122
70
1
10
0.00000
20
0.00000
10
0.38547
20
0.15000
10
0.75787
20
0.30000
10
1.11720
20
0.45000
10
1.46347
20
0.60000
10
1.79667
20
0.75000
10
2.11680
20
0.90000
10
2.42387
20
1.05000
10
2.71787
20
1.20000
10
2.99880
20
1.35000
10
3.26667
20
1.50000
10
3.52147
20
1.65000
10
3.76320
20
1.80000
10
3.99187
20
1.95000
10
4.20747
20
2.10000
10
4.41000
20
2.25000
10
4.59947
20
2.40000
10
4.77587
20
2.55000
10
4.93920
20
2.70000
10
5.08947
20
2.85000
10
5.22667
20
3.00000
10
5.35080
20
3.15000
10
5.46187
20
3.30000
10
5.55987
20
3.45000
10
5.64480
20
3.60000
10
5.71667
20
3.75000
10
5.77547
20
3.90000
10
5.82120
20
4.05000
10
5.85387
20
4.20000
10
5.87347
20
4.35000
10
5.88000
20
4.50000
10
5.88000
20
4.65000
10
5.88000
20
4.80000
10
5.88000
20
4.95000
10
5.88000
20
5.10000
10
5.88000
20
5.25000
10
5.88000
20
5.40000
10
5.88000
20
5.55000
10
5.88000
20
5.70000
10
5.88000
20
5.85000
10
5.88000
20
6.00000
10
5.88000
20
6.15000
10
5.88000
20
6.30000
10
5.88000
20
6.45000
10
5.88000
20
6.60000
10
5.88000
20
6.75000
10
5.88000
20
6.90000
10
5.88000
20
7.05000
10
5.88000
20
7.20000
10
5.88000
20
7.35000
10
5.88000
20
7.50000
10
5.88000
20
7.65000
10
5.88000
20
7.80000
10
5.88000
20
7.95000
10
5.88000
20
8.10000
10
5.88000
20
8.25000
10
5.88000
20
8.40000
10
5.88000
20
8.55000
10
5.88000
20
8.70000
10
5.88000
20
8.85000
10
5.88000
20
9.00000
10
-5.88000
20
9.00000
10
-5.88000
20
8.85000
10
-5.88000
20
8.70000
10
-5.88000
20
8.55000
10
-5.88000
20
8.40000
10
-5.88000
20
8.25000
10
-5.88000
20
8.10000
10
-5.88000
20
7.95000
10
-5.88000
20
7.80000
10
-5.88000
20
7.65000
10
-5.88000
20
7.50000
10
-5.88000
20
7.35000
10
-5.88000
20
7.20000
10
-5.88000
20
7.05000
10
-5.88000
20
6.90000
10
-5.88000
20
6.75000
10
-5.88000
20
6.60000
10
-5.88000
20
6.45000
10
-5.88000
20
6.30000
10
-5.88000
20
6.15000
10
-5.88000
20
6.00000
10
-5.88000
20
5.85000
10
-5.88000
20
5.70000
10
-5.88000
20
5.55000
10
-5.88000
20
5.40000
10
-5.88000
20
5.25000
10
-5.88000
20
5.10000
10
-5.88000
20
4.95000
10
-5.88000
20
4.80000
10
-5.88000
20
4.65000
10
-5.88000
20
4.50000
10
-5.87347
20
4.35000
10
-5.85387
20
4.20000
10
-5.82120
20
4.05000
10
-5.77547
20
3.90000
10
-5.71667
20
3.75000
10
-5.64480
20
3.60000
10
-5.55987
20
3.45000
10
-5.46187
20
3.30000
10
-5.35080
20
3.15000
10
-5.22667
20
3.00000
10
-5.08947
20
2.85000
10
-4.93920
20
2.70000
10
-4.77587
20
2.55000
10
-4.59947
20
2.40000
10
-4.41000
20
2.25000
10
-4.20747
20
2.10000
10
-3.99187
20
1.95000
10
-3.76320
20
1.80000
10
-3.52147
20
1.65000
10
-3.26667
20
1.50000
10
-2.99880
20
1.35000
10
-2.71787
20
1.20000
10
-2.42387
20
1.05000
10
-2.11680
20
0.90000
10
-1.79667
20
0.75000
10
-1.46347
20
0.60000
10
-1.11720
20
0.45000
10
-0.75787
20
0.30000
10
-0.38547
20
0.15000
10
-0.00000
20
0.00000
0
LWPOLYLINE
8
SECTIONS
90
122
70
1
10
0.00000
20
0.00000
10
0.29369
20
0.15000
10
0.57742
20
0.30000
10
0.85120
20
0.45000
10
1.11502
20
0.60000
10
1.36889
20
0.75000
10
1.61280
20
0.90000
10
1.84676
20
1.05000
10
2.07076
20
1.20000
10
2.28480
20
1.35000
10
2.48889
20
1.50000
10
2.68302
20
1.65000
10
2.86720
20
1.80000
10
3.04142
20
1.95000
10
3.20569
20
2.10000
10
3.36000
20
2.25000
10
3.50436
20
2.40000
10
3.63876
20
2.55000
10
3.76320
20
2.70000
10
3.87769
20
2.85000
10
3.98222
20
3.00000
10
4.07680
20
3.15000
10
4.16142
20
3.30000
10
4.23609
20
3.45000
10
4.30080
20
3.60000
10
4.35556
20
3.75000
10
4.40036
20
3.90000
10
4.43520
20
4.05000
10
4.46009
20
4.20000
10
4.47502
20
4.35000
10
4.48000
20
4.50000
10
4.48000
20
4.65000
10
4.48000
20
4.80000
10
4.48000
20
4.95000
10
4.48000
20
5.10000
10
4.48000
20
5.25000
10
4.48000
20
5.40000
10
4.48000
20
5.55000
10
4.48000
20
5.70000
10
4.48000
20
5.85000
10
4.48000
20
6.00000
10
4.48000
20
6.15000
10
4.48000
20
6.30000
10
4.48000
20
6.45000
10
4.48000
20
6.60000
10
4.48000
20
6.75000
10
4.48000
20
6.90000
10
4.48000
20
7.05000
10
4.48000
20
7.20000
10
4.48000
20
7.35000
10
4.48000
20
7.50000
10
4.48000
20
7.65000
10
4.48000
20
7.80000
10
4.48000
20
7.95000
10
4.48000
20
8.10000
10
4.48000
20
8.25000
10
4.48000
20
8.40000
10
4.48000
20
8.55000
10
4.48000
20
8.70000
10
4.48000
20
8.85000
10
4.48000
20
9.00000
10
-4.48000
20
9.00000
10
-4.48000
20
8.85000
10
-4.48000
20
8.70000
10
-4.48000
20
8.55000
10
-4.48000
20
8.40000
10
-4.48000
20
8.25000
10
-4.48000
20
8.10000
10
-4.48000
20
7.95000
10
-4.48000
20
7.80000
10
-4.48000
20
7.65000
10
-4.48000
20
7.50000
10
-4.48000
20
7.35000
10
-4.48000
20
7.20000
10
-4.48000
20
7.05000
10
-4.48000
20
6.90000
10
-4.48000
20
6.75000
10
-4.48000
20
6.60000
10
-4.48000
20
6.45000
10
-4.48000
20
6.30000
10
-4.48000
20
6.15000
10
-4.48000
20
6.00000
10
-4.48000
20
5.85000
10
-4.48000
20
5.70000
10
-4.48000
20
5.55000
10
-4.48000
20
5.40000
10
-4.48000
20
5.25000
10
-4.48000
20
5.10000
10
-4.48000
20
4.95000
10
-4.48000
20
4.80000
10
-4.48000
20
4.65000
10
-4.48000
20
4.50000
10
-4.47502
20
4.35000
10
-4.46009
20
4.20000
10
-4.43520
20
4.05000
10
-4.40036
20
3.90000
10
-4.35556
20
3.75000
10
-4.30080
20
3.60000
10
-4.23609
20
3.45000
10
-4.16142
20
3.30000
10
-4.07680
20
3.15000
10
-3.98222
20
3.00000
10
-3.87769
20
2.85000
10
-3.76320
20
2.70000
10
-3.63876
20
2.55000
10
-3.50436
20
2.40000
10
-3.36000
20
2.25000
10
-3.20569
20
2.10000
10
-3.04142
20
1.95000
10
-2.86720
20
1.80000
10
-2.68302
20
1.65000
10
-2.48889
20
1.50000
10
-2.28480
20
1.35000
10
-2.07076
20
1.20000
10
-1.84676
20
1.05000
10
-1.61280
20
0.90000
10
-1.36889
20
0.75000
10
-1.11502
20
0.60000
10
-0.85120
20
0.45000
10
-0.57742
20
0.30000
10
-0.29369
20
0.15000
10
-0.00000
20
0.00000
0
LWPOLYLINE
8
SECTIONS
90
122
70
1
10
0.00000
20
0.00000
10
0.16520
20
0.15000
10
0.32480
20
0.30000
10
0.47880
20
0.45000
10
0.62720
20
0.60000
10
0.77000
20
0.75000
10
0.90720
20
0.90000
10
1.03880
20
1.05000
10
1.16480
20
1.20000
10
1.28520
20
1.35000
10
1.40000
20
1.50000
10
1.50920
20
1.65000
10
1.61280
20
1.80000
10
1.71080
20
1.95000
10
1.80320
20
2.10000
10
1.89000
20
2.25000
10
1.97120
20
2.40000
10
2.04680
20
2.55000
10
2.11680
20
2.70000
10
2.18120
20
2.85000
10
2.24000
20
3.00000
10
2.29320
20
3.15000
10
2.34080
20
3.30000
10
2.38280
20
3.45000
10
2.41920
20
3.60000
10
2.45000
20
3.75000
10
2.47520
20
3.90000
10
2.49480
20
4.05000
10
2.50880
20
4.20000
10
2.51720
20
4.35000
10
2.52000
20
4.50000
10
2.52000
20
4.65000
10
2.52000
20
4.80000
10
2.52000
20
4.95000
10
2.52000
20
5.10000
10
2.52000
20
5.25000
10
2.52000
20
5.40000
10
2.52000
20
5.55000
10
2.52000
20
5.70000
10
2.52000
20
5.85000
10
2.52000
20
6.00000
10
2.52000
20
6.15000
10
2.52000
20
6.30000
10
2.52000
20
6.45000
10
2.52000
20
6.60000
10
2.52000
20
6.75000
10
2.52000
20
6.90000
10
2.52000
20
7.05000
10
2.52000
20
7.20000
10
2.52000
20
7.35000
10
2.52000
20
7.50000
10
2.52000
20
7.65000
10
2.52000
20
7.80000
10
2.52000
20
7.95000
10
2.52000
20
8.10000
10
2.52000
20
8.25000
10
2.52000
20
8.40000
10
2.52000
20
8.55000
10
2.52000
20
8.70000
10
2.52000
20
8.85000
10
2.52000
20
9.00000
10
-2.52000
20
9.00000
10
-2.52000
20
8.85000
10
-2.52000
20
8.70000
10
-2.52000
20
8.55000
10
-2.52000
20
8.40000
10
-2.52000
20
8.25000
10
-2.52000
20
8.10000
10
-2.52000
20
7.95000
10
-2.52000
20
7.80000
10
-2.52000
20
7.65000
10
-2.52000
20
7.50000
10
-2.52000
20
7.35000
10
-2.52000
20
7.20000
10
-2.52000
20
7.05000
10
-2.52000
20
6.90000
10
-2.52000
20
6.75000
10
-2.52000
20
6.60000
10
-2.52000
20
6.45000
10
-2.52000
20
6.30000
10
-2.52000
20
6.15000
10
-2.52000
20
6.00000
10
-2.52000
20
5.85000
10
-2.52000
20
5.70000
10
-2.52000
20
5.55000
10
-2.52000
20
5.40000
10
-2.52000
20
5.25000
10
-2.52000
20
5.10000
10
-2.52000
20
4.95000
10
-2.52000
20
4.80000
10
-2.52000
20
4.65000
10
-2.52000
20
4.50000
10
-2.51720
20
4.35000
10
-2.50880
20
4.20000
10
-2.49480
20
4.05000
10
-2.47520
20
3.90000
10
-2.45000
20
3.75000
10
-2.41920
20
3.60000
10
-2.38280
20
3.45000
10
-2.34080
20
3.30000
10
-2.29320
20
3.15000
10
-2.24000
20
3.00000
10
-2.18120
20
2.85000
10
-2.11680
20
2.70000
10
-2.04680
20
2.55000
10
-1.97120
20
2.40000
10
-1.89000
20
2.25000
10
-1.80320
20
2.10000
10
-1.71080
20
1.95000
10
-1.61280
20
1.80000
10
-1.50920
20
1.65000
10
-1.40000
20
1.50000
10
-1.28520
20
1.35000
10
-1.16480
20
1.20000
10
-1.03880
20
1.05000
10
-0.90720
20
0.90000
10
-0.77000
20
0.75000
10
-0.62720
20
0.60000
10
-0.47880
20
0.45000
10
-0.32480
20
0.30000
10
-0.16520
20
0.15000
10
-0.00000
20
0.00000
0
LWPOLYLINE
8
SECTIONS
90
122
70
1
10
0.00000
20
0.00000
10
0.00000
20
0.15000
10
0.00000
20
0.30000
10
0.00000
20
0.45000
10
0.00000
20
0.60000
10
0.00000
20
0.75000
10
0.00000
20
0.90000
10
0.00000
20
1.05000
10
0.00000
20
1.20000
10
0.00000
20
1.35000
10
0.00000
20
1.50000
10
0.00000
20
1.65000
10
0.00000
20
1.80000
10
0.00000
20
1.95000
10
0.00000
20
2.10000
10
0.00000
20
2.25000
10
0.00000
20
2.40000
10
0.00000
20
2.55000
10
0.00000
20
2.70000
10
0.00000
20
2.85000
10
0.00000
20
3.00000
10
0.00000
20
3.15000
10
0.00000
20
3.30000
10
0.00000
20
3.45000
10
0.00000
20
3.60000
10
0.00000
20
3.75000
10
0.00000
20
3.90000
10
0.00000
20
4.05000
10
0.00000
20
4.20000
10
0.00000
20
4.35000
10
0.00000
20
4.50000
10
0.00000
20
4.65000
10
0.00000
20
4.80000
10
0.00000
20
4.95000
10
0.00000
20
5.10000
10
0.00000
20
5.25000
10
0.00000
20
5.40000
10
0.00000
20
5.55000
10
0.00000
20
5.70000
10
0.00000
20
5.85000
10
0.00000
20
6.00000
10
0.00000
20
6.15000
10
0.00000
20
6.30000
10
0.00000
20
6.45000
10
0.00000
20
6.60000
10
0.00000
20
6.75000
10
0.00000
20
6.90000
10
0.00000
20
7.05000
10
0.00000
20
7.20000
10
0.00000
20
7.35000
10
0.00000
20
7.50000
10
0.00000
20
7.65000
10
0.00000
20
7.80000
10
0.00000
20
7.95000
10
0.00000
20
8.10000
10
0.00000
20
8.25000
10
0.00000
20
8.40000
10
0.00000
20
8.55000
10
0.00000
20
8.70000
10
0.00000
20
8.85000
10
0.00000
20
9.00000
10
-0.00000
20
9.00000
10
-0.00000
20
8.85000
10
-0.00000
20
8.70000
10
-0.00000
20
8.55000
10
-0.00000
20
8.40000
10
-0.00000
20
8.25000
10
-0.00000
20
8.10000
10
-0.00000
20
7.95000
10
-0.00000
20
7.80000
10
-0.00000
20
7.65000
10
-0.00000
20
7.50000
10
-0.00000
20
7.35000
10
-0.00000
20
7.20000
10
-0.00000
20
7.05000
10
-0.00000
20
6.90000
10
-0.00000
20
6.75000
10
-0.00000
20
6.60000
10
-0.00000
20
6.45000
10
-0.00000
20
6.30000
10
-0.00000
20
6.15000
10
-0.00000
20
6.00000
10
-0.00000
20
5.85000
10
-0.00000
20
5.70000
10
-0.00000
20
5.55000
10
-0.00000
20
5.40000
10
-0.00000
20
5.25000
10
-0.00000
20
5.10000
10
-0.00000
20
4.95000
10
-0.00000
20
4.80000
10
-0.00000
20
4.65000
10
-0.00000
20
4.50000
10
-0.00000
20
4.35000
10
-0.00000
20
4.20000
10
-0.00000
20
4.05000
10
-0.00000
20
3.90000
10
-0.00000
20
3.75000
10
-0.00000
20
3.60000
10
-0.00000
20
3.45000
10
-0.00000
20
3.30000
10
-0.00000
20
3.15000
10
-0.00000
20
3.00000
10
-0.00000
20
2.85000
10
-0.00000
20
2.70000
10
-0.00000
20
2.55000
10
-0.00000
20
2.40000
10
-0.00000
20
2.25000
10
-0.00000
20
2.10000
10
-0.00000
20
1.95000
10
-0.00000
20
1.80000
10
-0.00000
20
1.65000
10
-0.00000
20
1.50000
10
-0.00000
20
1.35000
10
-0.00000
20
1.20000
10
-0.00000
20
1.05000
10
-0.00000
20
0.90000
10
-0.00000
20
0.75000
10
-0.00000
20
0.60000
10
-0.00000
20
0.45000
10
-0.00000
20
0.30000
10
-0.00000
20
0.15000
10
-0.00000
20
0.00000
0
ENDSEC
0
EOF
